<svg xmlns="http://www.w3.org/2000/svg" version="1.1" xmlns:xlink="http://www.w3.org/1999/xlink" width="155" height="267"><svg width="155" height="267" viewBox="0 0 155 267" fill="none" xmlns="http://www.w3.org/2000/svg">
<path d="M142.666 3.46669C132.132 7.73336 119.466 16.9334 101.866 33.0667C76.2658 56.4 68.9324 62.2667 47.0658 76.8C18.2658 96 5.59909 109.867 2.53242 125.6L1.73242 130H8.26576C22.5324 130 35.0658 124.267 69.1991 102C80.7991 94.5334 95.4658 85.7334 101.866 82.4C114.532 76 134.399 69.2 144.932 67.6C151.066 66.8 151.999 66.2667 153.066 62.6667C155.066 56.1334 154.932 15.6 152.799 7.60002C151.866 3.86669 150.666 0.666685 150.266 0.800018C149.732 0.800018 146.399 2.00002 142.666 3.46669Z" fill="black"></path>
<path d="M122 85.4667C105.2 89.8667 91.3334 98.8 66.6667 121.067C59.4667 127.467 46.6667 137.733 38.1334 143.867C29.6 150 19.7333 158.133 16.2667 161.867C1.73335 177.333 -3.19999 199.467 2.66668 222.4C3.46668 225.333 4.13335 225.867 6.53335 225.2C21.7333 220.533 35.6 211.867 48.4 199.067C57.7334 189.733 66.2667 177.6 80.5334 153.067C92.1334 133.067 100.667 122.667 112 114.667C123.2 106.667 132.133 103.2 144.667 102.133L154.667 101.333V93.3334C154.667 85.6 154.533 85.3334 150.667 84.5334C143.6 82.9334 129.6 83.4667 122 85.4667Z" fill="black"></path>
<path d="M139.467 130.8C129.067 133.6 116.8 140 107.867 147.2C91.2003 160.533 82.2669 175.333 67.4669 214.4C57.0669 241.733 53.8669 247.6 43.4669 257.867L34.9336 266.4L42.2669 265.6C57.0669 264.133 67.6003 255.733 88.6669 228.667C101.334 212.533 112.4 201.067 132.4 183.6C148.667 169.333 153.6 159.6 154.267 139.6L154.667 128.667L150.667 128.8C148.534 128.8 143.467 129.733 139.467 130.8Z" fill="black"></path>
</svg><style>@media (prefers-color-scheme: light) { :root { filter: none; } }
@media (prefers-color-scheme: dark) { :root { filter: invert(100%); } }
</style></svg>